<?xml version="1.0" standalone="no"?>
<!DOCTYPE svg PUBLIC "-//W3C//DTD SVG 20010904//EN"
 "http://www.w3.org/TR/2001/REC-SVG-20010904/DTD/svg10.dtd">
<svg version="1.0" xmlns="http://www.w3.org/2000/svg"
 width="308.000000pt" height="118.000000pt" viewBox="0 0 308.000000 118.000000"
 preserveAspectRatio="xMidYMid meet">

<g transform="translate(0.000000,118.000000) scale(0.100000,-0.100000)"
fill="#000000" stroke="none">
<path d="M0 590 l0 -590 1540 0 1540 0 0 590 0 590 -1540 0 -1540 0 0 -590z
m2326 498 c4 -5 -184 -8 -417 -8 -233 0 -738 -3 -1121 -7 l-698 -6 0 -464 0
-463 460 0 c402 0 460 -2 460 -15 0 -13 -59 -15 -470 -15 l-470 0 0 498 0 497
1124 -5 c618 -3 1128 -8 1132 -12z m-1876 -340 c0 -8 -14 -13 -37 -13 -35 0
-38 -2 -41 -32 -3 -32 -2 -33 32 -33 25 0 36 -4 36 -15 0 -10 -11 -15 -35 -15
l-35 0 0 -105 c0 -87 -3 -105 -15 -105 -12 0 -15 18 -15 105 0 98 -1 105 -20
105 -11 0 -20 7 -20 15 0 8 9 15 20 15 15 0 20 7 20 27 0 39 27 63 72 63 24 0
38 -5 38 -12z m290 -2 c0 -20 -19 -31 -32 -18 -6 6 -7 15 -4 21 10 16 36 13
36 -3z m573 7 c9 -9 -13 -34 -24 -27 -14 8 -11 34 4 34 8 0 17 -3 20 -7z m717
-158 c0 -103 -4 -165 -10 -165 -6 0 -10 62 -10 165 0 103 4 165 10 165 6 0 10
-62 10 -165z m-898 98 c2 -23 8 -29 36 -31 43 -4 41 -22 -3 -22 l-35 0 0 -84
c0 -92 11 -112 55 -104 17 4 25 1 25 -8 0 -10 -13 -14 -39 -14 -58 0 -71 24
-71 127 0 76 -2 83 -20 83 -11 0 -20 6 -20 14 0 8 8 13 18 12 12 -1 18 7 20
27 2 15 9 27 17 27 8 0 15 -12 17 -27z m-575 -43 c5 -18 8 -19 22 -7 27 24 61
31 61 13 0 -9 -6 -16 -14 -16 -7 0 -25 -9 -40 -21 -24 -19 -26 -26 -26 -105 0
-68 -3 -84 -15 -84 -12 0 -15 20 -15 120 0 80 4 120 11 120 6 0 13 -9 16 -20z
m181 -103 c2 -100 0 -117 -13 -117 -13 0 -15 19 -15 121 0 92 3 120 13 117 8
-3 13 -39 15 -121z m264 96 c24 -22 12 -37 -15 -18 -34 24 -94 19 -122 -10
-42 -41 -29 -131 22 -154 34 -15 65 -14 92 5 15 11 26 13 33 6 17 -17 -32 -42
-85 -42 -42 0 -54 5 -83 34 -29 29 -34 41 -34 79 0 49 32 100 74 118 28 12 96
2 118 -18z m308 -98 c0 -96 -3 -115 -15 -115 -12 0 -15 19 -15 115 0 96 3 115
15 115 12 0 15 -19 15 -115z m277 80 c33 -33 35 -38 31 -87 -7 -69 -47 -108
-111 -108 -88 0 -140 68 -116 152 14 53 50 78 111 78 44 0 54 -4 85 -35z m133
14 l0 -20 26 20 c39 31 107 29 139 -4 23 -22 25 -32 25 -115 0 -53 -4 -90 -10
-90 -6 0 -10 32 -10 75 0 41 -5 85 -11 99 -23 49 -103 54 -139 8 -16 -20 -20
-40 -20 -103 0 -46 -4 -79 -10 -79 -6 0 -10 45 -10 115 0 70 4 115 10 115 6 0
10 -9 10 -21z m496 11 c-43 -8 -89 -51 -84 -79 3 -13 21 -17 103 -22 l100 -5
-102 -2 c-86 -2 -103 -5 -103 -18 0 -39 34 -70 95 -85 24 -6 26 -7 7 -8 -96
-4 -153 106 -96 188 19 27 48 40 89 39 26 0 25 -1 -9 -8z m181 -62 c-3 -7 -5
-2 -5 12 0 14 2 19 5 13 2 -7 2 -19 0 -25z"/>
<path d="M1452 633 c-19 -7 -42 -58 -42 -92 0 -45 44 -91 87 -91 45 0 69 14
89 52 34 65 -9 139 -80 137 -23 0 -47 -3 -54 -6z"/>
</g>
</svg>
